<svg width="460" height="461" viewBox="0 0 460 461" fill="none" xmlns="http://www.w3.org/2000/svg">
<path d="M346.495 173.234C344.632 174.72 346.463 177.633 348.61 176.6L457.132 124.341C458.46 123.702 460 124.67 460 126.143V166.294C460 167.062 459.56 167.762 458.869 168.095L366.056 212.851C363.91 213.886 365.047 217.132 367.37 216.602L455.245 196.554L457.546 196.017C458.8 195.725 460 196.677 460 197.965V235.059C460 235.992 459.355 236.8 458.446 237.008L376.312 255.79C373.989 256.322 374.375 259.74 376.758 259.74H458C459.105 259.74 460 260.636 460 261.74V297.945C460 299.05 459.105 299.945 458.001 299.945L299.552 299.997V162.891C299.552 161.787 298.658 160.892 297.555 160.891L259.295 160.84L160.501 160.893V2.44532C160.501 1.34075 161.396 0.445312 162.501 0.445312H198.705C199.81 0.445312 200.705 1.34074 200.705 2.44531V83.3497C200.705 85.7334 204.126 86.1179 204.655 83.7937L223.28 2.00127C223.487 1.09108 224.296 0.445312 225.23 0.445312H262.396C263.677 0.445312 264.628 1.63355 264.347 2.88382L263.838 5.14728L243.805 93.0448C243.276 95.3689 246.525 96.504 247.558 94.3556L281.801 23.1098L292.191 1.57617C292.525 0.884748 293.225 0.445312 293.992 0.445312H334.197C335.67 0.445312 336.638 1.98489 335.999 3.31272L283.786 111.79C282.752 113.937 285.666 115.767 287.152 113.904L377.036 1.1983C377.415 0.722456 377.991 0.445312 378.6 0.445312H424.89C426.565 0.445312 427.498 2.38159 426.454 3.69173L318.651 138.973C317.165 140.837 319.6 143.27 321.463 141.783L456.752 33.7856C458.062 32.7399 460 33.6726 460 35.3486V81.7402C460 82.3488 459.723 82.9243 459.247 83.3038L346.495 173.234Z" fill="#FFFFFF"/>
<path d="M299.552 299.997V458.445C299.552 459.55 298.657 460.445 297.552 460.445H261.348C260.243 460.445 259.348 459.55 259.348 458.445V377.457C259.348 375.074 255.928 374.689 255.398 377.013L236.721 458.89C236.513 459.8 235.704 460.445 234.771 460.445H197.573C196.284 460.445 195.332 459.245 195.625 457.991L196.162 455.691L216.196 367.829C216.726 365.505 213.477 364.37 212.444 366.518L167.808 459.312C167.475 460.005 166.774 460.445 166.006 460.445H125.803C124.329 460.445 123.361 458.906 124 457.578L176.207 349.07C177.24 346.923 174.325 345.093 172.84 346.957L83.017 459.692C82.6375 460.168 82.0617 460.445 81.4528 460.445H35.0586C33.3832 460.445 32.4503 458.509 33.4948 457.199L141.394 321.867C142.88 320.003 140.446 317.57 138.583 319.057L3.24748 427.053C1.93756 428.099 0 427.166 0 425.49V379.098C0 378.489 0.277421 377.913 0.753664 377.534L66.0388 325.515L113.543 287.585C115.405 286.099 113.574 283.187 111.427 284.22L2.86773 336.496C1.53987 337.136 0 336.168 0 334.694V294.544C0 293.776 0.439637 293.076 1.1313 292.742L93.9362 247.991C96.0822 246.956 94.9452 243.709 92.6224 244.239L4.80763 264.284L2.44972 264.828C1.19649 265.117 0 264.165 0 262.879V225.78C0 224.847 0.645333 224.038 1.55513 223.83L83.6883 205.091C86.0111 204.561 85.627 201.143 83.2445 201.141L1.99895 201.099C0.894791 201.098 0 200.203 0 199.099V162.893C0 161.789 0.895431 160.893 2 160.893L160.501 160.893V297.947C160.501 299.051 161.395 299.946 162.498 299.947L200.705 299.997L299.552 299.997Z" fill="#FFFFFF"/>
</svg>
